Simulation
nRows=28
nColumns=15
endheader
time  TH_x TH_y TH_z SC_y  SC_z  SC_x  AC_y  AC_z  AC_x  GH_y  GH_z  GH_yy  EL_x  PS_y
0.0  0.000000  0.000000  0.000000  -28.32189816105068  -1.6385864019686387  14.079981028624859  55.61565789164563  -7.713063607032248  -15.684409411217386  -166.49566191185673  4.183723744892711  -169.58221420297116  25.622183354503107  0.000000
0.015  0.000000  0.000000  0.000000  -28.361504131668624  -1.5431898816548586  13.984364215348867  55.6037373358276  -7.370251299719673  -15.596997855459422  -166.57887697845095  3.9185848195497273  -169.59720080502626  25.587028740383346  0.000000
0.03  0.000000  0.000000  0.000000  -28.29988872894178  -1.4538719205955448  13.934009833077889  55.62310049809826  -7.113359271972306  -15.561461123516922  -166.74395298198587  3.604241144822441  -169.52901620499497  25.57345040405237  0.000000
0.045  0.000000  0.000000  0.000000  -28.29754832850206  -1.3628105551979  13.931181038819155  55.655758022202356  -6.945375123333407  -15.530480577799672  -167.00638780870597  3.2193248343437366  -169.38349684159866  25.541870643669984  0.000000
0.06  0.000000  0.000000  0.000000  -28.309805455698438  -1.279756217664538  13.966426233409829  55.665082065883226  -6.833229608461323  -15.513014116520274  -167.47004762621344  2.7984883692453417  -169.0926065307762  25.505382443111642  0.000000
0.075  0.000000  0.000000  0.000000  -28.333926483100587  -1.202379894947244  14.025221908868572  55.68236146955185  -6.77105895641513  -15.503215289057419  -168.5992156270663  2.335552412086801  -168.17979210804802  25.45574671419115  0.000000
0.09  0.000000  0.000000  0.000000  -28.368175295794597  -1.1276161392093207  14.1042938438542  55.69423307103393  -6.7469900650126355  -15.497720571245926  -170.8743198640857  1.842861181377988  -166.1677710106381  25.405056593666806  0.000000
0.105  0.000000  0.000000  0.000000  -28.409284264633886  -1.0528100787574495  14.197993023258997  55.70393904118252  -6.75633388874203  -15.492241426097111  -175.77425412478271  1.327186178271288  -161.57544075418633  25.34929778257681  0.000000
0.12  0.000000  0.000000  0.000000  -28.458485676629444  -0.976751318545437  14.30319516833003  55.71397573561911  -6.793725103139742  -15.486165389880734  171.43856426632826  0.8121538554476164  -149.13870670710463  25.291745294661506  0.000000
0.135  0.000000  0.000000  0.000000  -28.516243291744182  -0.8976619712296569  14.418328329431827  55.72281777392905  -6.855248302726406  -15.475894187704947  125.92792655230458  0.4422367210959131  -104.01806645122369  25.23202627834694  0.000000
0.15  0.000000  0.000000  0.000000  -28.581831551491746  -0.8135322305299054  14.542116041480618  55.73286643545455  -6.938252381902137  -15.460974709272602  63.41046040244888  0.6832379198846193  -41.92911742980896  25.16915697928138  0.000000
0.16499999999999998  0.000000  0.000000  0.000000  -28.65504858478296  -0.7217188151199774  14.676815512897344  55.743162644657225  -7.041455623021135  -15.440195943100187  44.362279607501954  1.2465198880625488  -23.343465366786482  25.104200438147828  0.000000
0.18  0.000000  0.000000  0.000000  -28.73395884223807  -0.6206478774242848  14.820165623444376  55.75510888215555  -7.161169387911075  -15.412534322107245  37.19211424281941  1.877745528233753  -16.66723607748426  25.036373535420267  0.000000
0.195  0.000000  0.000000  0.000000  -28.819879070886078  -0.5130982285202644  14.971630998996178  55.76856082832253  -7.293524420012369  -15.378070399919867  33.345342277041404  2.5393129080333328  -13.340443231899997  24.96436183717563  0.000000
0.21  0.000000  0.000000  0.000000  -28.91293955193276  -0.40398740897847873  15.121535161854709  55.787057984782386  -7.426026092911279  -15.336007157161237  30.828892032721107  3.2242648711147504  -11.365041025290129  24.88774132531299  0.000000
0.22499999999999998  0.000000  0.000000  0.000000  -29.01436527740257  -0.2969876605541974  15.271527031799481  55.81280663895271  -7.553653915251448  -15.29037059081855  28.982825110318473  3.9295824950175877  -10.074211247165472  24.806449794999274  0.000000
0.24  0.000000  0.000000  0.000000  -29.121355104675086  -0.195685643866729  15.424449399952433  55.84634959522945  -7.670580148279695  -15.247510135756103  27.554611004699574  4.651165804272222  -9.211742648115333  24.72129770347445  0.000000
0.255  0.000000  0.000000  0.000000  -29.230847109313817  -0.1029388819219943  15.57868856999165  55.88811602010763  -7.7684141368665  -15.208570674810632  26.39689825222195  5.384922948133627  -8.626590543305435  24.631923511787413  0.000000
0.27  0.000000  0.000000  0.000000  -29.340808706273965  -0.01878680557351918  15.724645292018453  55.9399119837322  -7.835415608962911  -15.170331719849356  25.449257012132605  6.129392688251221  -8.256617074524241  24.539466023032883  0.000000
0.285  0.000000  0.000000  0.000000  -29.4531497990589  0.05801273294572906  15.861888406662102  56.00239268563715  -7.869789341674295  -15.131396179637973  24.667324922926593  6.884847226874698  -8.05447377644512  24.445165095413344  0.000000
0.3  0.000000  0.000000  0.000000  -29.569168529995338  0.12734837489499412  15.989902700017613  56.07580059572371  -7.871443162021512  -15.091456779720591  24.034360580020763  7.6527355974610805  -8.00199366202258  24.349209784124916  0.000000
0.315  0.000000  0.000000  0.000000  -29.690431610979143  0.18956680065963952  16.110377131890477  56.15989231848403  -7.843036071809088  -15.049892418722987  23.52858905448315  8.43400936082636  -8.074203458378019  24.25123683196617  0.000000
0.32999999999999996  0.000000  0.000000  0.000000  -29.81641327887154  0.24636688649553626  16.22451505649014  56.254275885509564  -7.7877088253650335  -15.006363782889489  23.132422190995747  9.228497584416381  -8.250440747109556  24.151459882436573  0.000000
0.345  0.000000  0.000000  0.000000  -29.947632377927903  0.30045324355156455  16.33431088829153  56.357937009021946  -7.7088697267121935  -14.959111321094648  22.821866604348433  10.034576883901277  -8.503365772881072  24.04998623155077  0.000000
0.36  0.000000  0.000000  0.000000  -30.083568338886725  0.354773510756515  16.439728632769  56.47013070265374  -7.609103203557877  -14.906358122218347  22.581032653220944  10.850927588457795  -8.815212846349686  23.946473152017184  0.000000
0.375  0.000000  0.000000  0.000000  -30.22527988377831  0.411950215622753  16.54120195767856  56.58977854885727  -7.490406928457795  -14.845490347317842  22.38926602440951  11.67567119409722  -9.162821734338147  23.841026901914013  0.000000
0.39  0.000000  0.000000  0.000000  -30.369762126407267  0.47420912242777863  16.641312457951816  56.71639058677002  -7.356941329020985  -14.77757364524096  22.23344294749044  12.506469551703164  -9.531883705411918  23.733957126408306  0.000000
0.40499999999999997  0.000000  0.000000  0.000000  -30.51347313285873  0.543572098742341  16.74873156425215  56.84867162994143  -7.217114504262818  -14.70568897024278  22.10672288666487  13.338808625027406  -9.915887687209569  23.624149650021803  0.000000
